<svg xmlns="http://www.w3.org/2000/svg" viewBox="0 0 1200 630" width="1200" height="630">
  <defs>
    <linearGradient id="sky" x1="0" y1="0" x2="0" y2="1">
      <stop offset="0%" stop-color="#060d1c"/>
      <stop offset="30%" stop-color="#0f2550"/>
      <stop offset="60%" stop-color="#2a4f80"/>
      <stop offset="85%" stop-color="#6b5c45"/>
      <stop offset="100%" stop-color="#8c5e35"/>
    </linearGradient>
    <radialGradient id="vignette" cx="50%" cy="50%" r="60%">
      <stop offset="40%" stop-color="transparent"/>
      <stop offset="100%" stop-color="rgba(4,6,10,0.7)"/>
    </radialGradient>
  </defs>

  <rect width="1200" height="630" fill="url(#sky)"/>

  <g fill="white" opacity="0.6">
    <circle cx="100" cy="40" r="1.5"/>
    <circle cx="200" cy="80" r="1"/>
    <circle cx="350" cy="50" r="1.5"/>
    <circle cx="500" cy="100" r="1"/>
    <circle cx="650" cy="30" r="1.5"/>
    <circle cx="780" cy="70" r="1"/>
    <circle cx="900" cy="45" r="1.5"/>
    <circle cx="1050" cy="90" r="1"/>
    <circle cx="150" cy="150" r="1"/>
    <circle cx="450" cy="130" r="1.5"/>
    <circle cx="700" cy="160" r="1"/>
    <circle cx="950" cy="140" r="1"/>
    <circle cx="1100" cy="120" r="1.5"/>
  </g>

  <path d="M0 400 Q200 320 400 350 Q600 280 800 330 Q1000 260 1200 300 L1200 630 L0 630Z" fill="#162d48" opacity="0.6"/>
  <path d="M0 450 Q300 380 600 420 Q900 350 1200 400 L1200 630 L0 630Z" fill="#1e3b5e" opacity="0.4"/>

  <g transform="translate(60, 80)" opacity="0.8">
    <path d="M20 140 Q5 120 10 80 Q15 50 40 30 Q70 10 120 15 Q170 20 200 50 Q220 80 215 110 Q210 140 180 155 Q150 170 110 170 Q70 170 40 160 Q25 155 20 140Z" fill="#3d3020"/>
    <path d="M40 30 Q70 10 120 15 Q100 35 70 45 Q50 50 40 30Z" fill="#5a4832" opacity="0.6"/>
  </g>

  <path d="M540 630 L660 630 L950 200 L250 200Z" fill="#1a1612" opacity="0.3"/>

  <g transform="translate(586, 380)">
    <ellipse cx="14" cy="7" rx="5" ry="6" fill="#0e0c08"/>
    <path d="M8 13 Q6 20 5 32 Q4 42 6 52 L8 52 Q9 42 10 32 L14 34 L18 32 Q19 42 20 52 L22 52 Q24 42 23 32 Q22 20 20 13 Q17 11 14 11 Q11 11 8 13Z" fill="#0e0c08"/>
    <ellipse cx="14" cy="62" rx="10" ry="2.5" fill="#000" opacity="0.4"/>
  </g>

  <rect width="1200" height="630" fill="url(#vignette)"/>

  <rect width="1200" height="38" fill="#060a0f"/>
  <rect y="595" width="1200" height="35" fill="#06090e"/>

  <text x="600" y="260" text-anchor="middle" font-family="Georgia, 'Times New Roman', serif" font-style="italic" font-weight="800" font-size="110" fill="#f0ece4" letter-spacing="-2">
    KUR<tspan fill="#d46a28">4</tspan>TEK
  </text>

  <line x1="420" y1="290" x2="540" y2="290" stroke="#c89040" stroke-width="1" opacity="0.5"/>
  <circle cx="600" cy="290" r="3" fill="#c89040" opacity="0.7"/>
  <line x1="660" y1="290" x2="780" y2="290" stroke="#c89040" stroke-width="1" opacity="0.5"/>

  <text x="600" y="330" text-anchor="middle" font-family="'Courier New', monospace" font-size="16" fill="rgba(240,236,228,0.45)" letter-spacing="6">
    CURATION LISTS FOR NOSTR
  </text>

  <text x="600" y="380" text-anchor="middle" font-family="'Courier New', monospace" font-size="12" fill="rgba(200,144,64,0.6)" letter-spacing="4">
    No gatekeepers. Your data, your keys.
  </text>

  <line x1="400" y1="430" x2="800" y2="430" stroke="#c89040" stroke-width="0.5" opacity="0.2"/>
</svg>
